<svg id="Layer_1" data-name="Layer 1" xmlns="http://www.w3.org/2000/svg" xmlns:xlink="http://www.w3.org/1999/xlink" viewBox="0 0 1326.29 669.4"><defs><style>.cls-1{fill:none;}.cls-2{clip-path:url(#clip-path);}.cls-3{fill:#f69320;}.cls-4{clip-path:url(#clip-path-2);}.cls-5{fill:#fff;}</style><clipPath id="clip-path" transform="translate(56.29 -702.09)"><rect id="SVGID" class="cls-1" x="3.45" y="702.09" width="1266.55" height="575.82"/></clipPath><clipPath id="clip-path-2" transform="translate(56.29 -702.09)"><path id="SVGID-2" data-name="SVGID" class="cls-1" d="M1.95,952.38c12.49,18.14,20.55,41.94,34.82,57.4,24.7,26.77,61.5,21.94,87.23,46.81,26.32,25.43,33.79,74,52.35,110.12,16.48,32.1,42.6,54.5,70.79,60.7,13.16,2.89,70.84-40.4,83.2-33.57,13.19,7.29,76.09,66.22,84.43,82.08l-327.56-.4c-15.8.05-85.15.4-85.15.4L0,1159.37Z"/></clipPath></defs><title>3</title><g class="cls-2"><path class="cls-3" d="M3.45,812.9s304-280.13,622.84,50.42c117,121.28,144.37,210.65,235.43,268.92,140.06,89.64,408.27-58.83,408.27-58.83v204.49L3.45,1272.31Z" transform="translate(56.29 -702.09)"/></g><g class="cls-4"><path class="cls-5" d="M83.17,1172.39l0,.28a78.7,78.7,0,0,1-5.75,24.69,62.17,62.17,0,0,1-11.65,18.48A45,45,0,0,1,49.67,1227a36.18,36.18,0,0,1-19.36,2.15l-71.9-10.79q-4.74-.71-7.92-6a19,19,0,0,1-2.69-11.58c0-.16,0-.3.06-.46s0-.22,0-.32l3.73-47.09L-38,1021.42q.92-11.56,7.48-18.84t15-6q8.41,1.26,13.68,10.3A34.48,34.48,0,0,1,2.5,1027.5l-3.72,47.08h0l-9.18,116,25.48,3.82q9.88,1.49,17.51-6.69t8.69-21.32l10.4-131.52q.92-11.56,7.68-18.81t15.46-5.93q8.69,1.3,14.17,10.38a33.79,33.79,0,0,1,4.57,20.54C93.71,1039.27,83.17,1172.39,83.17,1172.39Z" transform="translate(56.29 -702.09)"/><path class="cls-5" d="M210.36,1195.84c.06-.7.17-1.37.24-2.06l-.34.17c2.06-34.38-16.21-64.95-41.24-68.7l90.17,13.53-.06.15c.83.07,1.66.08,2.5.21l34.76,5.22a37.78,37.78,0,0,1,17.94,7.75,54.24,54.24,0,0,1,13.46,15.59,74,74,0,0,1,8.14,21.71,86.41,86.41,0,0,1,1.77,22.95l.14,0c-.12.95-.19,1.84-.26,2.79A86.53,86.53,0,0,0,339.2,1241a75,75,0,0,0,8.15,21.4A52.94,52.94,0,0,0,361,1278a38.27,38.27,0,0,0,17.76,7.72l-46.22-6.93-5.35,67.6q-1,12.11-7.31,19.13t-15.14,5.71Q296.32,1370,291,1361a34.53,34.53,0,0,1-4.36-20.62l10.4-131.51A39.64,39.64,0,0,0,292,1185.2q-6.13-10.5-15.3-11.88-9.93-1.49-17.35,6.71t-8.5,21.88l-10.4,131.51q-.92,11.58-7.48,18.84t-15,6q-8.4-1.26-13.68-10.3a34.53,34.53,0,0,1-4.36-20.62Z" transform="translate(56.29 -702.09)"/><path class="cls-5" d="M-56,1248.68a21.69,21.69,0,0,1,2.66-9.18q4-6.33,10.09-5.41l17.57,2.64q4.59.69,7.65,5.94a20.27,20.27,0,0,1,2.52,12.09q-1,13.14,4.91,23.36t15.89,11.7q9.55,1.43,17-6.77t8.46-21.36a18.08,18.08,0,0,1,4.35-11.06q3.81-4.22,8.78-3.47,11.85,1.78,19.33,14.61a46.65,46.65,0,0,1,6.09,19.46,1.72,1.72,0,0,1,.06.23c.32,2.77,1.29,9.2,1.89,11.87a73.41,73.41,0,0,0,8.19,21.47,53,53,0,0,0,13.64,15.6,38,38,0,0,0,17.76,7.72l-73.24-11h0l-52.34-7.85q-19.1-2.87-31-23.81Q-58.1,1275.51-56,1248.68Z" transform="translate(56.29 -702.09)"/><path class="cls-5" d="M169.87,1185.67l-7.58,95.77c-.69,8.75-3.48,15.86-8.47,21.31s-10.58,7.75-16.94,6.79c-6.61-1-11.95-4.92-15.91-11.72s-5.58-14.57-4.89-23.32l6.52-82.34a19.28,19.28,0,0,0-2.59-11.53c-2-3.5-4.59-5.51-7.66-6L94.79,1172a8.85,8.85,0,0,0-5.78,1l2.85-33.48a9.28,9.28,0,0,0,5.29,2.77l52.35,7.85q9.14,1.38,15.29,11.87A39.68,39.68,0,0,1,169.87,1185.67Z" transform="translate(56.29 -702.09)"/><path class="cls-5" d="M134,1047.22l-4.1,51.84q-.54,6.85-4.14,10.82a9.15,9.15,0,0,1-8.57,3.24l-8.78-1.32h0l-8.65-1.3a8.88,8.88,0,0,0-5.56.84l7.63-89.94q5.81-5.84,13-5.25c.37,0,.74.08,1.12.13q8.41,1.26,13.68,10.3A34.54,34.54,0,0,1,134,1047.22Z" transform="translate(56.29 -702.09)"/></g></svg>