<svg id="Layer_1" data-name="Layer 1" xmlns="http://www.w3.org/2000/svg" xmlns:xlink="http://www.w3.org/1999/xlink" viewBox="0 0 1329.59 375.09"><defs><style>.cls-1{fill:none;}.cls-2{fill:#f69320;}.cls-3{clip-path:url(#clip-path);}.cls-4{fill:#fff;}</style><clipPath id="clip-path" transform="translate(57.94 -996.12)"><path id="SVGID" class="cls-1" d="M.3,952.1c12.49,18.14,20.55,41.94,34.82,57.4,24.7,26.77,61.5,21.94,87.23,46.81,26.32,25.43,33.79,74,52.35,110.12,16.48,32.1,42.6,54.5,70.79,60.7,13.16,2.89,70.84-40.4,83.2-33.57,13.19,7.29,76.09,66.22,84.43,82.08l-327.56-.4c-15.8.05-85.15.4-85.15.4l-2.07-116.54Z"/></clipPath></defs><title>5(2)</title><path class="cls-2" d="M-1.65,1051.23s305.59-135.71,626.16,24.43c117.62,58.75,145.14,102,236.68,130.28,140.81,43.43,410.45-28.5,410.45-28.5v99.07l-1273.3-2.71Z" transform="translate(57.94 -996.12)"/><g class="cls-3"><path class="cls-4" d="M81.53,1172.11l0,.28a78.7,78.7,0,0,1-5.75,24.69,62.17,62.17,0,0,1-11.65,18.48A45,45,0,0,1,48,1226.73a36.18,36.18,0,0,1-19.36,2.15l-71.9-10.79q-4.74-.71-7.92-6a19,19,0,0,1-2.69-11.58c0-.16,0-.3.06-.46s0-.22,0-.32l3.73-47.09,10.4-131.52q.92-11.56,7.48-18.84t15-6q8.41,1.26,13.68,10.3a34.48,34.48,0,0,1,4.36,20.61l-3.72,47.08h0l-9.18,116,25.48,3.82q9.88,1.49,17.51-6.69t8.69-21.32L50,1034.6q.92-11.56,7.68-18.81t15.46-5.93q8.69,1.3,14.17,10.38a33.79,33.79,0,0,1,4.57,20.54C92.06,1039,81.53,1172.11,81.53,1172.11Z" transform="translate(57.94 -996.12)"/><path class="cls-4" d="M208.72,1195.56c.06-.7.17-1.37.24-2.06l-.34.17c2.06-34.38-16.21-64.95-41.24-68.7l90.17,13.53-.06.15c.83.07,1.66.08,2.5.21l34.76,5.22a37.78,37.78,0,0,1,17.94,7.75,54.24,54.24,0,0,1,13.46,15.59,74,74,0,0,1,8.14,21.71,86.41,86.41,0,0,1,1.77,22.95l.14,0c-.12.95-.19,1.84-.26,2.79a86.53,86.53,0,0,0,1.63,25.84,75,75,0,0,0,8.15,21.4,52.94,52.94,0,0,0,13.63,15.66,38.27,38.27,0,0,0,17.76,7.72l-46.22-6.93-5.35,67.6q-1,12.11-7.31,19.13T303.07,1371q-8.4-1.26-13.68-10.3a34.53,34.53,0,0,1-4.36-20.62l10.4-131.51a39.64,39.64,0,0,0-5.08-23.65q-6.13-10.5-15.3-11.88-9.93-1.49-17.35,6.71t-8.5,21.88l-10.4,131.51q-.92,11.58-7.48,18.84t-15,6q-8.4-1.26-13.68-10.3a34.53,34.53,0,0,1-4.36-20.62Z" transform="translate(57.94 -996.12)"/><path class="cls-4" d="M-57.63,1248.4a21.69,21.69,0,0,1,2.66-9.18q4-6.33,10.09-5.41l17.57,2.64q4.59.69,7.65,5.94a20.27,20.27,0,0,1,2.52,12.09q-1,13.14,4.91,23.36t15.89,11.7q9.55,1.43,17-6.77t8.46-21.36a18.08,18.08,0,0,1,4.35-11.06q3.81-4.22,8.78-3.47,11.85,1.78,19.33,14.61a46.65,46.65,0,0,1,6.09,19.46,1.72,1.72,0,0,1,.06.23c.32,2.77,1.29,9.2,1.89,11.87a73.41,73.41,0,0,0,8.19,21.47,53,53,0,0,0,13.64,15.6,38,38,0,0,0,17.76,7.72l-73.24-11h0L-16.44,1319q-19.1-2.87-31-23.81Q-59.75,1275.23-57.63,1248.4Z" transform="translate(57.94 -996.12)"/><path class="cls-4" d="M168.22,1185.39l-7.58,95.77c-.69,8.75-3.48,15.86-8.47,21.31s-10.58,7.75-16.94,6.79c-6.61-1-11.95-4.92-15.91-11.72s-5.58-14.57-4.89-23.32l6.52-82.34a19.28,19.28,0,0,0-2.59-11.53c-2-3.5-4.59-5.51-7.66-6l-17.55-2.63a8.85,8.85,0,0,0-5.78,1l2.85-33.48A9.28,9.28,0,0,0,95.5,1142l52.35,7.85q9.14,1.38,15.29,11.87A39.68,39.68,0,0,1,168.22,1185.39Z" transform="translate(57.94 -996.12)"/><path class="cls-4" d="M132.4,1046.94l-4.1,51.84q-.54,6.85-4.14,10.82a9.15,9.15,0,0,1-8.57,3.24l-8.78-1.32h0l-8.65-1.3a8.88,8.88,0,0,0-5.56.84l7.63-89.94q5.81-5.84,13-5.25c.37,0,.74.08,1.12.13q8.41,1.26,13.68,10.3A34.54,34.54,0,0,1,132.4,1046.94Z" transform="translate(57.94 -996.12)"/></g></svg>